<svg width="100" height="120" viewBox="0 0 100 120" xmlns="http://www.w3.org/2000/svg">
<!-- Left letter (N) -->
<path d="M24.3014 59.2509V40.7548L32.2285 33.0195V87.0026L25.4523 80.3953L18.6538 62.914V73.7615L11.5485 66.8366L11.5425 53.1994L18.602 46.3169L24.3014 59.2509Z" fill="black"/>
<!-- Center letter (C) -->
<path d="M50.127 15.5508L36.431 28.9282L36.4244 91.1011L50.1246 104.447L65.3618 89.6812V74.2587L50.127 89.7036L48.7356 88.5245V32.2471L50.127 30.3288L65.2669 46.6835V30.3509L50.127 15.5508Z" fill="black"/>
<!-- Right letter (C) -->
<path d="M88.4929 67.0749V62.0723L81.4925 62.0744V63.4545L77.1665 67.1191L77.1777 53.561L81.4911 57.3457V58.5784H88.4929V52.9652L69.4181 34.3613V85.7681L88.4929 67.0749Z" fill="black"/>
</svg>
