<svg width="100" height="120" viewBox="0 0 100 120" xmlns="http://www.w3.org/2000/svg">
<!-- Diamond border outline -->
<path d="M50.1437 119.996L0 70.1749V49.8038L50.1277 -0.00390625L100 49.5817V70.4592L50.1437 119.996ZM2.90528 68.9792L50.1434 115.914L97.094 69.2638V50.7778L50.127 4.07924L2.90528 50.9998V68.9792Z" fill="black"/>
<!-- Left letter border -->
<path d="M32.9547 88.7235L24.8312 80.8024L19.38 66.7857V75.4818L10.822 67.1414L10.8157 52.8981L18.8447 45.0703L23.5742 55.8045V40.4535L32.954 31.3008V88.7239L32.9547 88.7235ZM26.0732 79.9908L31.502 85.2842V34.7415L25.0279 41.059V59.2525L23.6361 59.5419L18.3591 47.566L12.2691 53.5035L12.275 66.5346L17.9277 72.0438V62.9149L19.3317 62.6549L26.0735 79.9904L26.0732 79.9908Z" fill="black"/>
<!-- Center letter border -->
<path d="M50.1232 105.458L35.6976 91.4046L35.7049 28.6263L50.1271 14.5391L65.9935 30.0489V48.5343L50.1955 31.4692L49.4624 32.4805V88.1922L50.0829 88.7178L66.0887 72.4916V89.9857L50.1236 105.457L50.1232 105.458ZM37.1506 90.7981L50.126 103.438L64.6354 89.3775V76.0266L50.1712 90.6907L48.0091 88.8581V32.0145L50.0586 29.1893L64.5405 44.8332V30.6541L50.1267 16.5634L37.1576 29.2314L37.1506 90.7981Z" fill="black"/>
<!-- Right letter border -->
<path d="M68.6916 87.4927V32.6406L89.219 52.6616V59.2995H80.7643V57.6704L77.9028 55.1591L77.8941 65.5534L80.766 63.1205V61.3522L89.219 61.3498V67.3757L68.6916 87.4927ZM70.1446 36.0803V84.0416L87.7664 66.772V62.7931L82.219 62.7948V63.7868L76.439 68.6826L76.4529 51.9608L82.2176 57.0193V57.8558H87.7664V53.2674L70.1446 36.0803Z" fill="black"/>
</svg>
